<?xml version="1.0" encoding="UTF-8" standalone="no"?>
<svg
   viewBox="0 0 640 512"
   version="1.1"
   id="svg4"
   sodipodi:docname="dice-solid.svg"
   inkscape:version="1.2.1 (9c6d41e410, 2022-07-14)"
   xmlns:inkscape="http://www.inkscape.org/namespaces/inkscape"
   xmlns:sodipodi="http://sodipodi.sourceforge.net/DTD/sodipodi-0.dtd"
   xmlns="http://www.w3.org/2000/svg"
   xmlns:svg="http://www.w3.org/2000/svg">
  <defs
     id="defs8" />
  <sodipodi:namedview
     id="namedview6"
     pagecolor="#505050"
     bordercolor="#eeeeee"
     borderopacity="1"
     inkscape:showpageshadow="0"
     inkscape:pageopacity="0"
     inkscape:pagecheckerboard="0"
     inkscape:deskcolor="#505050"
     showgrid="false"
     inkscape:zoom="1.6542969"
     inkscape:cx="319.77332"
     inkscape:cy="256.30224"
     inkscape:window-width="1920"
     inkscape:window-height="1027"
     inkscape:window-x="-8"
     inkscape:window-y="-8"
     inkscape:window-maximized="1"
     inkscape:current-layer="svg4" />
  <!--! Font Awesome Pro 6.4.0 by @fontawesome - https://fontawesome.com License - https://fontawesome.com/license (Commercial License) Copyright 2023 Fonticons, Inc. -->
  <path
     d="M274.9 34.3c-28.1-28.1-73.7-28.1-101.8 0L34.3 173.1c-28.1 28.1-28.1 73.7 0 101.8L173.1 413.7c28.1 28.1 73.7 28.1 101.8 0L413.7 274.9c28.1-28.1 28.1-73.7 0-101.8L274.9 34.3zM200 224a24 24 0 1 1 48 0 24 24 0 1 1 -48 0zM96 200a24 24 0 1 1 0 48 24 24 0 1 1 0-48zM224 376a24 24 0 1 1 0-48 24 24 0 1 1 0 48zM352 200a24 24 0 1 1 0 48 24 24 0 1 1 0-48zM224 120a24 24 0 1 1 0-48 24 24 0 1 1 0 48zm96 328c0 35.3 28.7 64 64 64H576c35.3 0 64-28.7 64-64V256c0-35.3-28.7-64-64-64H461.7c11.6 36 3.1 77-25.4 105.5L320 413.8V448zM480 328a24 24 0 1 1 0 48 24 24 0 1 1 0-48z"
     id="path2"
     style="fill:#649bbe;fill-opacity:1;stroke:#ffffff;stroke-opacity:1;stroke-width:0;stroke-dasharray:none" />
</svg>
